<svg xmlns="http://www.w3.org/2000/svg" xmlns:xlink="http://www.w3.org/1999/xlink" contentStyleType="text/css" data-diagram-type="CLASS" height="1003px" preserveAspectRatio="none" style="width:1093px;height:1003px;background:#FFFFFF;" version="1.1" viewBox="0 0 1093 1003" width="1093px" zoomAndPan="magnify"><defs/><g><!--class roles--><g class="entity" data-entity="roles" data-source-line="4" data-uid="ent0002" id="entity_roles"><rect fill="#F1F1F1" height="123.7813" rx="2.5" ry="2.5" style="stroke:#181818;stroke-width:0.5;" width="157.6465" x="361.56" y="7"/><text fill="#000000" font-family="sans-serif" font-size="14" lengthAdjust="spacing" textLength="34.1182" x="423.3242" y="24.9951">roles</text><line style="stroke:#181818;stroke-width:0.5;" x1="362.56" x2="518.2065" y1="33.2969" y2="33.2969"/><ellipse cx="372.56" cy="46.9453" fill="#000000" rx="3" ry="3" style="stroke:#000000;stroke-width:1;"/><text fill="#000000" font-family="sans-serif" font-size="14" lengthAdjust="spacing" textLength="99.3057" x="381.56" y="50.292">id : bigint [PK]</text><text fill="#000000" font-family="sans-serif" font-size="14" lengthAdjust="spacing" textLength="93.5088" x="381.56" y="66.5889">name : string</text><text fill="#000000" font-family="sans-serif" font-size="14" lengthAdjust="spacing" textLength="131.6465" x="381.56" y="82.8857">description : string</text><text fill="#000000" font-family="sans-serif" font-size="14" lengthAdjust="spacing" textLength="91.6973" x="381.56" y="99.1826">level : tinyint</text><text fill="#000000" font-family="sans-serif" font-size="14" lengthAdjust="spacing" textLength="125.4873" x="381.56" y="115.4795">permissions : text</text><line style="stroke:#181818;stroke-width:0.5;" x1="362.56" x2="518.2065" y1="122.7813" y2="122.7813"/></g><!--class users--><g class="entity" data-entity="users" data-source-line="12" data-uid="ent0003" id="entity_users"><rect fill="#F1F1F1" height="188.9688" rx="2.5" ry="2.5" style="stroke:#181818;stroke-width:0.5;" width="168.6865" x="356.04" y="190.78"/><text fill="#000000" font-family="sans-serif" font-size="14" lengthAdjust="spacing" textLength="37.8301" x="421.4682" y="208.7751">users</text><line style="stroke:#181818;stroke-width:0.5;" x1="357.04" x2="523.7265" y1="217.0769" y2="217.0769"/><ellipse cx="367.04" cy="230.7253" fill="#000000" rx="3" ry="3" style="stroke:#000000;stroke-width:1;"/><text fill="#000000" font-family="sans-serif" font-size="14" lengthAdjust="spacing" textLength="99.3057" x="376.04" y="234.072">id : bigint [PK]</text><text fill="#000000" font-family="sans-serif" font-size="14" lengthAdjust="spacing" textLength="127.8662" x="376.04" y="250.3689">first_name : string</text><text fill="#000000" font-family="sans-serif" font-size="14" lengthAdjust="spacing" textLength="125.7607" x="376.04" y="266.6657">last_name : string</text><text fill="#000000" font-family="sans-serif" font-size="14" lengthAdjust="spacing" textLength="124.0449" x="376.04" y="282.9626">username : string</text><text fill="#000000" font-family="sans-serif" font-size="14" lengthAdjust="spacing" textLength="92.415" x="376.04" y="299.2595">email : string</text><text fill="#000000" font-family="sans-serif" font-size="14" lengthAdjust="spacing" textLength="134.0117" x="376.04" y="315.5564">mfa_enabled : bool</text><text fill="#000000" font-family="sans-serif" font-size="14" lengthAdjust="spacing" textLength="142.6865" x="376.04" y="331.8532">employee_id : string</text><text fill="#000000" font-family="sans-serif" font-size="14" lengthAdjust="spacing" textLength="96.6328" x="376.04" y="348.1501">status : enum</text><text fill="#000000" font-family="sans-serif" font-size="14" lengthAdjust="spacing" textLength="132.7402" x="376.04" y="364.447">role_id : bigint [FK]</text><line style="stroke:#181818;stroke-width:0.5;" x1="357.04" x2="523.7265" y1="371.7488" y2="371.7488"/></g><!--class assets--><g class="entity" data-entity="assets" data-source-line="24" data-uid="ent0004" id="entity_assets"><rect fill="#F1F1F1" height="156.375" rx="2.5" ry="2.5" style="stroke:#181818;stroke-width:0.5;" width="195.5107" x="720.63" y="439.75"/><text fill="#000000" font-family="sans-serif" font-size="14" lengthAdjust="spacing" textLength="44.5635" x="796.1036" y="457.7451">assets</text><line style="stroke:#181818;stroke-width:0.5;" x1="721.63" x2="915.1407" y1="466.0469" y2="466.0469"/><ellipse cx="731.63" cy="479.6953" fill="#000000" rx="3" ry="3" style="stroke:#000000;stroke-width:1;"/><text fill="#000000" font-family="sans-serif" font-size="14" lengthAdjust="spacing" textLength="99.3057" x="740.63" y="483.042">id : bigint [PK]</text><text fill="#000000" font-family="sans-serif" font-size="14" lengthAdjust="spacing" textLength="93.5088" x="740.63" y="499.3389">name : string</text><text fill="#000000" font-family="sans-serif" font-size="14" lengthAdjust="spacing" textLength="153.4668" x="740.63" y="515.6357">serial_number : string</text><text fill="#000000" font-family="sans-serif" font-size="14" lengthAdjust="spacing" textLength="91.4375" x="740.63" y="531.9326">placa : string</text><text fill="#000000" font-family="sans-serif" font-size="14" lengthAdjust="spacing" textLength="84.8887" x="740.63" y="548.2295">type : enum</text><text fill="#000000" font-family="sans-serif" font-size="14" lengthAdjust="spacing" textLength="125.8154" x="740.63" y="564.5264">ownership : enum</text><text fill="#000000" font-family="sans-serif" font-size="14" lengthAdjust="spacing" textLength="169.5107" x="740.63" y="580.8232">assigned_to : bigint [FK]</text><line style="stroke:#181818;stroke-width:0.5;" x1="721.63" x2="915.1407" y1="588.125" y2="588.125"/></g><!--class loan_statuses--><g class="entity" data-entity="loan_statuses" data-source-line="34" data-uid="ent0005" id="entity_loan_statuses"><rect fill="#F1F1F1" height="74.8906" rx="2.5" ry="2.5" style="stroke:#181818;stroke-width:0.5;" width="125.3057" x="560.73" y="480.49"/><text fill="#000000" font-family="sans-serif" font-size="14" lengthAdjust="spacing" textLength="95.833" x="575.4663" y="498.4851">loan_statuses</text><line style="stroke:#181818;stroke-width:0.5;" x1="561.73" x2="685.0357" y1="506.7869" y2="506.7869"/><ellipse cx="571.73" cy="520.4353" fill="#000000" rx="3" ry="3" style="stroke:#000000;stroke-width:1;"/><text fill="#000000" font-family="sans-serif" font-size="14" lengthAdjust="spacing" textLength="99.3057" x="580.73" y="523.782">id : bigint [PK]</text><text fill="#000000" font-family="sans-serif" font-size="14" lengthAdjust="spacing" textLength="93.5088" x="580.73" y="540.0789">name : string</text><line style="stroke:#181818;stroke-width:0.5;" x1="561.73" x2="685.0357" y1="547.3806" y2="547.3806"/></g><!--class loans--><g class="entity" data-entity="loans" data-source-line="39" data-uid="ent0006" id="entity_loans"><rect fill="#F1F1F1" height="156.375" rx="2.5" ry="2.5" style="stroke:#181818;stroke-width:0.5;" width="202.7705" x="451" y="656.12"/><text fill="#000000" font-family="sans-serif" font-size="14" lengthAdjust="spacing" textLength="37.2012" x="533.7847" y="674.1151">loans</text><line style="stroke:#181818;stroke-width:0.5;" x1="452" x2="652.7705" y1="682.4169" y2="682.4169"/><ellipse cx="462" cy="696.0653" fill="#000000" rx="3" ry="3" style="stroke:#000000;stroke-width:1;"/><text fill="#000000" font-family="sans-serif" font-size="14" lengthAdjust="spacing" textLength="99.3057" x="471" y="699.412">id : bigint [PK]</text><text fill="#000000" font-family="sans-serif" font-size="14" lengthAdjust="spacing" textLength="136.4521" x="471" y="715.7089">user_id : bigint [FK]</text><text fill="#000000" font-family="sans-serif" font-size="14" lengthAdjust="spacing" textLength="143.1855" x="471" y="732.0057">asset_id : bigint [FK]</text><text fill="#000000" font-family="sans-serif" font-size="14" lengthAdjust="spacing" textLength="148.9346" x="471" y="748.3026">status_id : bigint [FK]</text><text fill="#000000" font-family="sans-serif" font-size="14" lengthAdjust="spacing" textLength="176.7705" x="471" y="764.5995">approved_by : bigint [FK]</text><text fill="#000000" font-family="sans-serif" font-size="14" lengthAdjust="spacing" textLength="175.7451" x="471" y="780.8964">delivered_by : bigint [FK]</text><text fill="#000000" font-family="sans-serif" font-size="14" lengthAdjust="spacing" textLength="170.666" x="471" y="797.1932">received_by : bigint [FK]</text><line style="stroke:#181818;stroke-width:0.5;" x1="452" x2="652.7705" y1="804.495" y2="804.495"/></g><!--class loan_details--><g class="entity" data-entity="loan_details" data-source-line="49" data-uid="ent0007" id="entity_loan_details"><rect fill="#F1F1F1" height="123.7813" rx="2.5" ry="2.5" style="stroke:#181818;stroke-width:0.5;" width="162.6777" x="697.05" y="872.5"/><text fill="#000000" font-family="sans-serif" font-size="14" lengthAdjust="spacing" textLength="83.5488" x="736.6145" y="890.4951">loan_details</text><line style="stroke:#181818;stroke-width:0.5;" x1="698.05" x2="858.7277" y1="898.7969" y2="898.7969"/><ellipse cx="708.05" cy="912.4453" fill="#000000" rx="3" ry="3" style="stroke:#000000;stroke-width:1;"/><text fill="#000000" font-family="sans-serif" font-size="14" lengthAdjust="spacing" textLength="99.3057" x="717.05" y="915.792">id : bigint [PK]</text><text fill="#000000" font-family="sans-serif" font-size="14" lengthAdjust="spacing" textLength="135.8232" x="717.05" y="932.0889">loan_id : bigint [FK]</text><text fill="#000000" font-family="sans-serif" font-size="14" lengthAdjust="spacing" textLength="136.6777" x="717.05" y="948.3857">tipo_de_uso : enum</text><text fill="#000000" font-family="sans-serif" font-size="14" lengthAdjust="spacing" textLength="87.7734" x="717.05" y="964.6826">ficha : string</text><text fill="#000000" font-family="sans-serif" font-size="14" lengthAdjust="spacing" textLength="87.2129" x="717.05" y="980.9795">sede : string</text><line style="stroke:#181818;stroke-width:0.5;" x1="698.05" x2="858.7277" y1="988.2813" y2="988.2813"/></g><!--class signatures--><g class="entity" data-entity="signatures" data-source-line="57" data-uid="ent0008" id="entity_signatures"><rect fill="#F1F1F1" height="107.4844" rx="2.5" ry="2.5" style="stroke:#181818;stroke-width:0.5;" width="162.4521" x="245.16" y="880.65"/><text fill="#000000" font-family="sans-serif" font-size="14" lengthAdjust="spacing" textLength="73.5479" x="289.6121" y="898.6451">signatures</text><line style="stroke:#181818;stroke-width:0.5;" x1="246.16" x2="406.6121" y1="906.9469" y2="906.9469"/><ellipse cx="256.16" cy="920.5953" fill="#000000" rx="3" ry="3" style="stroke:#000000;stroke-width:1;"/><text fill="#000000" font-family="sans-serif" font-size="14" lengthAdjust="spacing" textLength="99.3057" x="265.16" y="923.942">id : bigint [PK]</text><text fill="#000000" font-family="sans-serif" font-size="14" lengthAdjust="spacing" textLength="135.8232" x="265.16" y="940.2389">loan_id : bigint [FK]</text><text fill="#000000" font-family="sans-serif" font-size="14" lengthAdjust="spacing" textLength="136.4521" x="265.16" y="956.5357">user_id : bigint [FK]</text><text fill="#000000" font-family="sans-serif" font-size="14" lengthAdjust="spacing" textLength="84.8887" x="265.16" y="972.8326">type : enum</text><line style="stroke:#181818;stroke-width:0.5;" x1="246.16" x2="406.6121" y1="980.1344" y2="980.1344"/></g><!--class documents--><g class="entity" data-entity="documents" data-source-line="64" data-uid="ent0009" id="entity_documents"><rect fill="#F1F1F1" height="91.1875" rx="2.5" ry="2.5" style="stroke:#181818;stroke-width:0.5;" width="218.6846" x="443.04" y="888.8"/><text fill="#000000" font-family="sans-serif" font-size="14" lengthAdjust="spacing" textLength="77.9297" x="513.4174" y="906.7951">documents</text><line style="stroke:#181818;stroke-width:0.5;" x1="444.04" x2="660.7246" y1="915.0969" y2="915.0969"/><ellipse cx="454.04" cy="928.7453" fill="#000000" rx="3" ry="3" style="stroke:#000000;stroke-width:1;"/><text fill="#000000" font-family="sans-serif" font-size="14" lengthAdjust="spacing" textLength="99.3057" x="463.04" y="932.092">id : bigint [PK]</text><text fill="#000000" font-family="sans-serif" font-size="14" lengthAdjust="spacing" textLength="192.6846" x="463.04" y="948.3889">documentable_type : string</text><text fill="#000000" font-family="sans-serif" font-size="14" lengthAdjust="spacing" textLength="173.9131" x="463.04" y="964.6857">documentable_id : bigint</text><line style="stroke:#181818;stroke-width:0.5;" x1="444.04" x2="660.7246" y1="971.9875" y2="971.9875"/></g><!--class gate_logs--><g class="entity" data-entity="gate_logs" data-source-line="70" data-uid="ent0010" id="entity_gate_logs"><rect fill="#F1F1F1" height="107.4844" rx="2.5" ry="2.5" style="stroke:#181818;stroke-width:0.5;" width="169.1855" x="884.79" y="680.57"/><text fill="#000000" font-family="sans-serif" font-size="14" lengthAdjust="spacing" textLength="67.2041" x="935.7807" y="698.5651">gate_logs</text><line style="stroke:#181818;stroke-width:0.5;" x1="885.79" x2="1052.9755" y1="706.8669" y2="706.8669"/><ellipse cx="895.79" cy="720.5153" fill="#000000" rx="3" ry="3" style="stroke:#000000;stroke-width:1;"/><text fill="#000000" font-family="sans-serif" font-size="14" lengthAdjust="spacing" textLength="99.3057" x="904.79" y="723.862">id : bigint [PK]</text><text fill="#000000" font-family="sans-serif" font-size="14" lengthAdjust="spacing" textLength="143.1855" x="904.79" y="740.1589">asset_id : bigint [FK]</text><text fill="#000000" font-family="sans-serif" font-size="14" lengthAdjust="spacing" textLength="136.4521" x="904.79" y="756.4557">user_id : bigint [FK]</text><text fill="#000000" font-family="sans-serif" font-size="14" lengthAdjust="spacing" textLength="96.708" x="904.79" y="772.7526">action : enum</text><line style="stroke:#181818;stroke-width:0.5;" x1="885.79" x2="1052.9755" y1="780.0544" y2="780.0544"/></g><!--class exit_passes--><g class="entity" data-entity="exit_passes" data-source-line="77" data-uid="ent0011" id="entity_exit_passes"><rect fill="#F1F1F1" height="107.4844" rx="2.5" ry="2.5" style="stroke:#181818;stroke-width:0.5;" width="191.8262" x="894.47" y="880.65"/><text fill="#000000" font-family="sans-serif" font-size="14" lengthAdjust="spacing" textLength="81.2383" x="949.7639" y="898.6451">exit_passes</text><line style="stroke:#181818;stroke-width:0.5;" x1="895.47" x2="1085.2962" y1="906.9469" y2="906.9469"/><ellipse cx="905.47" cy="920.5953" fill="#000000" rx="3" ry="3" style="stroke:#000000;stroke-width:1;"/><text fill="#000000" font-family="sans-serif" font-size="14" lengthAdjust="spacing" textLength="99.3057" x="914.47" y="923.942">id : bigint [PK]</text><text fill="#000000" font-family="sans-serif" font-size="14" lengthAdjust="spacing" textLength="165.8262" x="914.47" y="940.2389">gate_log_id : bigint [FK]</text><text fill="#000000" font-family="sans-serif" font-size="14" lengthAdjust="spacing" textLength="110.2568" x="914.47" y="956.5357">permiso : enum</text><text fill="#000000" font-family="sans-serif" font-size="14" lengthAdjust="spacing" textLength="101.042" x="914.47" y="972.8326">estado : enum</text><line style="stroke:#181818;stroke-width:0.5;" x1="895.47" x2="1085.2962" y1="980.1344" y2="980.1344"/></g><!--class audit_logs--><g class="entity" data-entity="audit_logs" data-source-line="84" data-uid="ent0012" id="entity_audit_logs"><rect fill="#F1F1F1" height="107.4844" rx="2.5" ry="2.5" style="stroke:#181818;stroke-width:0.5;" width="162.4521" x="292.16" y="464.19"/><text fill="#000000" font-family="sans-serif" font-size="14" lengthAdjust="spacing" textLength="71.3535" x="337.7093" y="482.1851">audit_logs</text><line style="stroke:#181818;stroke-width:0.5;" x1="293.16" x2="453.6121" y1="490.4869" y2="490.4869"/><ellipse cx="303.16" cy="504.1353" fill="#000000" rx="3" ry="3" style="stroke:#000000;stroke-width:1;"/><text fill="#000000" font-family="sans-serif" font-size="14" lengthAdjust="spacing" textLength="99.3057" x="312.16" y="507.482">id : bigint [PK]</text><text fill="#000000" font-family="sans-serif" font-size="14" lengthAdjust="spacing" textLength="136.4521" x="312.16" y="523.7789">user_id : bigint [FK]</text><text fill="#000000" font-family="sans-serif" font-size="14" lengthAdjust="spacing" textLength="106.2715" x="312.16" y="540.0757">module : string</text><text fill="#000000" font-family="sans-serif" font-size="14" lengthAdjust="spacing" textLength="96.8994" x="312.16" y="556.3726">action : string</text><line style="stroke:#181818;stroke-width:0.5;" x1="293.16" x2="453.6121" y1="563.6744" y2="563.6744"/></g><!--class loan_approvals--><g class="entity" data-entity="loan_approvals" data-source-line="91" data-uid="ent0013" id="entity_loan_approvals"><rect fill="#F1F1F1" height="107.4844" rx="2.5" ry="2.5" style="stroke:#181818;stroke-width:0.5;" width="202.7705" x="7" y="880.65"/><text fill="#000000" font-family="sans-serif" font-size="14" lengthAdjust="spacing" textLength="105.6289" x="55.5708" y="898.6451">loan_approvals</text><line style="stroke:#181818;stroke-width:0.5;" x1="8" x2="208.7705" y1="906.9469" y2="906.9469"/><ellipse cx="18" cy="920.5953" fill="#000000" rx="3" ry="3" style="stroke:#000000;stroke-width:1;"/><text fill="#000000" font-family="sans-serif" font-size="14" lengthAdjust="spacing" textLength="99.3057" x="27" y="923.942">id : bigint [PK]</text><text fill="#000000" font-family="sans-serif" font-size="14" lengthAdjust="spacing" textLength="135.8232" x="27" y="940.2389">loan_id : bigint [FK]</text><text fill="#000000" font-family="sans-serif" font-size="14" lengthAdjust="spacing" textLength="176.7705" x="27" y="956.5357">approved_by : bigint [FK]</text><text fill="#000000" font-family="sans-serif" font-size="14" lengthAdjust="spacing" textLength="96.6328" x="27" y="972.8326">status : enum</text><line style="stroke:#181818;stroke-width:0.5;" x1="8" x2="208.7705" y1="980.1344" y2="980.1344"/></g><!--link roles to users--><g class="link" data-entity-1="roles" data-entity-2="users" data-source-line="98" data-uid="lnk14" id="link_roles_users"><path codeLine="98" d="M440.39,139.18 C440.39,157.66 440.39,152.33 440.39,172.38" fill="none" id="roles-users" style="stroke:#181818;stroke-width:1;"/><line style="stroke:#181818;stroke-width:1;" x1="436.39" x2="444.39" y1="135.18" y2="135.18"/><line style="stroke:#181818;stroke-width:1;" x1="436.39" x2="444.39" y1="138.18" y2="138.18"/><line style="stroke:#181818;stroke-width:1;" x1="440.39" x2="440.39" y1="139.18" y2="131.18"/><line style="stroke:#181818;stroke-width:1;" x1="440.39" x2="446.39" y1="182.38" y2="190.38"/><line style="stroke:#181818;stroke-width:1;" x1="440.39" x2="434.39" y1="182.38" y2="190.38"/><line style="stroke:#181818;stroke-width:1;" x1="440.39" x2="440.39" y1="182.38" y2="190.38"/><ellipse cx="440.39" cy="176.38" fill="none" rx="4" ry="4" style="stroke:#181818;stroke-width:1;"/><text fill="#000000" font-family="sans-serif" font-size="13" lengthAdjust="spacing" textLength="22.9785" x="417.39" y="156.8469">has</text></g><!--link users to loans--><g class="link" data-entity-1="users" data-entity-2="loans" data-source-line="99" data-uid="lnk15" id="link_users_loans"><path codeLine="99" d="M477.98,388.22 C477.98,470.2 477.98,561.21 477.98,637.94" fill="none" id="users-loans" style="stroke:#181818;stroke-width:1;"/><line style="stroke:#181818;stroke-width:1;" x1="473.98" x2="481.98" y1="384.22" y2="384.22"/><line style="stroke:#181818;stroke-width:1;" x1="473.98" x2="481.98" y1="387.22" y2="387.22"/><line style="stroke:#181818;stroke-width:1;" x1="477.98" x2="477.98" y1="388.22" y2="380.22"/><line style="stroke:#181818;stroke-width:1;" x1="477.98" x2="483.98" y1="647.94" y2="655.94"/><line style="stroke:#181818;stroke-width:1;" x1="477.98" x2="471.98" y1="647.94" y2="655.94"/><line style="stroke:#181818;stroke-width:1;" x1="477.98" x2="477.98" y1="647.94" y2="655.94"/><ellipse cx="477.98" cy="641.94" fill="none" rx="4" ry="4" style="stroke:#181818;stroke-width:1;"/><text fill="#000000" font-family="sans-serif" font-size="13" lengthAdjust="spacing" textLength="45.7729" x="478.98" y="514.1469">solicita</text></g><!--link users to assets--><g class="link" data-entity-1="users" data-entity-2="assets" data-source-line="100" data-uid="lnk16" id="link_users_assets"><path codeLine="100" d="M501.36,388 C501.36,425.69 501.36,452.28 501.36,452.28 C501.36,452.28 609.14,452.28 702.25,452.28" fill="none" id="users-assets" style="stroke:#181818;stroke-width:1;"/><line style="stroke:#181818;stroke-width:1;" x1="497.36" x2="505.36" y1="384" y2="384"/><line style="stroke:#181818;stroke-width:1;" x1="497.36" x2="505.36" y1="387" y2="387"/><line style="stroke:#181818;stroke-width:1;" x1="501.36" x2="501.36" y1="388" y2="380"/><line style="stroke:#181818;stroke-width:1;" x1="712.25" x2="720.25" y1="452.28" y2="446.28"/><line style="stroke:#181818;stroke-width:1;" x1="712.25" x2="720.25" y1="452.28" y2="458.28"/><line style="stroke:#181818;stroke-width:1;" x1="712.25" x2="720.25" y1="452.28" y2="452.28"/><ellipse cx="706.25" cy="452.28" fill="none" rx="4" ry="4" style="stroke:#181818;stroke-width:1;"/><text fill="#000000" font-family="sans-serif" font-size="13" lengthAdjust="spacing" textLength="38.9746" x="535.66" y="448.3469">posee</text></g><!--link users to audit_logs--><g class="link" data-entity-1="users" data-entity-2="audit_logs" data-source-line="101" data-uid="lnk17" id="link_users_audit_logs"><path codeLine="101" d="M405.33,388.24 C405.33,416.76 405.33,421.06 405.33,445.95" fill="none" id="users-audit_logs" style="stroke:#181818;stroke-width:1;"/><line style="stroke:#181818;stroke-width:1;" x1="401.33" x2="409.33" y1="384.24" y2="384.24"/><line style="stroke:#181818;stroke-width:1;" x1="401.33" x2="409.33" y1="387.24" y2="387.24"/><line style="stroke:#181818;stroke-width:1;" x1="405.33" x2="405.33" y1="388.24" y2="380.24"/><line style="stroke:#181818;stroke-width:1;" x1="405.33" x2="411.33" y1="455.95" y2="463.95"/><line style="stroke:#181818;stroke-width:1;" x1="405.33" x2="399.33" y1="455.95" y2="463.95"/><line style="stroke:#181818;stroke-width:1;" x1="405.33" x2="405.33" y1="455.95" y2="463.95"/><ellipse cx="405.33" cy="449.95" fill="none" rx="4" ry="4" style="stroke:#181818;stroke-width:1;"/><text fill="#000000" font-family="sans-serif" font-size="13" lengthAdjust="spacing" textLength="45.7983" x="359.33" y="418.1569">genera</text></g><!--link users to signatures--><g class="link" data-entity-1="users" data-entity-2="signatures" data-source-line="102" data-uid="lnk18" id="link_users_signatures"><path codeLine="102" d="M347.78,317.28 C304.43,317.28 268.66,317.28 268.66,317.28 C268.66,317.28 268.66,711.58 268.66,862.17" fill="none" id="users-signatures" style="stroke:#181818;stroke-width:1;"/><line style="stroke:#181818;stroke-width:1;" x1="351.78" x2="351.78" y1="313.28" y2="321.28"/><line style="stroke:#181818;stroke-width:1;" x1="348.78" x2="348.78" y1="313.28" y2="321.28"/><line style="stroke:#181818;stroke-width:1;" x1="347.78" x2="355.78" y1="317.28" y2="317.28"/><line style="stroke:#181818;stroke-width:1;" x1="268.66" x2="274.66" y1="872.17" y2="880.17"/><line style="stroke:#181818;stroke-width:1;" x1="268.66" x2="262.66" y1="872.17" y2="880.17"/><line style="stroke:#181818;stroke-width:1;" x1="268.66" x2="268.66" y1="872.17" y2="880.17"/><ellipse cx="268.66" cy="866.17" fill="none" rx="4" ry="4" style="stroke:#181818;stroke-width:1;"/><text fill="#000000" font-family="sans-serif" font-size="13" lengthAdjust="spacing" textLength="34.1631" x="233.66" y="551.2269">firma</text></g><!--link users to gate_logs--><g class="link" data-entity-1="users" data-entity-2="gate_logs" data-source-line="103" data-uid="lnk19" id="link_users_gate_logs"><path codeLine="103" d="M533.19,285.28 C686.28,285.28 985.06,285.28 985.06,285.28 C985.06,285.28 985.06,542.72 985.06,662.15" fill="none" id="users-gate_logs" style="stroke:#181818;stroke-width:1;"/><line style="stroke:#181818;stroke-width:1;" x1="529.19" x2="529.19" y1="289.28" y2="281.28"/><line style="stroke:#181818;stroke-width:1;" x1="532.19" x2="532.19" y1="289.28" y2="281.28"/><line style="stroke:#181818;stroke-width:1;" x1="533.19" x2="525.19" y1="285.28" y2="285.28"/><line style="stroke:#181818;stroke-width:1;" x1="985.06" x2="991.06" y1="672.15" y2="680.15"/><line style="stroke:#181818;stroke-width:1;" x1="985.06" x2="979.06" y1="672.15" y2="680.15"/><line style="stroke:#181818;stroke-width:1;" x1="985.06" x2="985.06" y1="672.15" y2="680.15"/><ellipse cx="985.06" cy="666.15" fill="none" rx="4" ry="4" style="stroke:#181818;stroke-width:1;"/><text fill="#000000" font-family="sans-serif" font-size="13" lengthAdjust="spacing" textLength="44.5923" x="907.56" y="281.3469">mueve</text></g><!--link users to loan_approvals--><g class="link" data-entity-1="users" data-entity-2="loan_approvals" data-source-line="104" data-uid="lnk20" id="link_users_loan_approvals"><path codeLine="104" d="M347.55,254.28 C239.49,254.28 74.59,254.28 74.59,254.28 C74.59,254.28 74.59,701.04 74.59,862.17" fill="none" id="users-loan_approvals" style="stroke:#181818;stroke-width:1;"/><line style="stroke:#181818;stroke-width:1;" x1="351.55" x2="351.55" y1="250.28" y2="258.28"/><line style="stroke:#181818;stroke-width:1;" x1="348.55" x2="348.55" y1="250.28" y2="258.28"/><line style="stroke:#181818;stroke-width:1;" x1="347.55" x2="355.55" y1="254.28" y2="254.28"/><line style="stroke:#181818;stroke-width:1;" x1="74.59" x2="80.59" y1="872.17" y2="880.17"/><line style="stroke:#181818;stroke-width:1;" x1="74.59" x2="68.59" y1="872.17" y2="880.17"/><line style="stroke:#181818;stroke-width:1;" x1="74.59" x2="74.59" y1="872.17" y2="880.17"/><ellipse cx="74.59" cy="866.17" fill="none" rx="4" ry="4" style="stroke:#181818;stroke-width:1;"/><text fill="#000000" font-family="sans-serif" font-size="13" lengthAdjust="spacing" textLength="54.0186" x="19.59" y="422.8169">aprueba</text></g><!--link assets to loans--><g class="link" data-entity-1="assets" data-entity-2="loans" data-source-line="105" data-uid="lnk21" id="link_assets_loans"><path codeLine="105" d="M712.28,584.28 C663.47,584.28 622.76,584.28 622.76,584.28 C622.76,584.28 622.76,601.48 622.76,637.78" fill="none" id="assets-loans" style="stroke:#181818;stroke-width:1;"/><line style="stroke:#181818;stroke-width:1;" x1="716.28" x2="716.28" y1="580.28" y2="588.28"/><line style="stroke:#181818;stroke-width:1;" x1="713.28" x2="713.28" y1="580.28" y2="588.28"/><line style="stroke:#181818;stroke-width:1;" x1="712.28" x2="720.28" y1="584.28" y2="584.28"/><line style="stroke:#181818;stroke-width:1;" x1="622.76" x2="628.76" y1="647.78" y2="655.78"/><line style="stroke:#181818;stroke-width:1;" x1="622.76" x2="616.76" y1="647.78" y2="655.78"/><line style="stroke:#181818;stroke-width:1;" x1="622.76" x2="622.76" y1="647.78" y2="655.78"/><ellipse cx="622.76" cy="641.78" fill="none" rx="4" ry="4" style="stroke:#181818;stroke-width:1;"/><text fill="#000000" font-family="sans-serif" font-size="13" lengthAdjust="spacing" textLength="73.9438" x="561.77" y="580.3469">es parte de</text></g><!--link assets to gate_logs--><g class="link" data-entity-1="assets" data-entity-2="gate_logs" data-source-line="106" data-uid="lnk22" id="link_assets_gate_logs"><path codeLine="106" d="M900.47,604.36 C900.47,632.18 900.47,636.84 900.47,662.18" fill="none" id="assets-gate_logs" style="stroke:#181818;stroke-width:1;"/><line style="stroke:#181818;stroke-width:1;" x1="896.47" x2="904.47" y1="600.36" y2="600.36"/><line style="stroke:#181818;stroke-width:1;" x1="896.47" x2="904.47" y1="603.36" y2="603.36"/><line style="stroke:#181818;stroke-width:1;" x1="900.47" x2="900.47" y1="604.36" y2="596.36"/><line style="stroke:#181818;stroke-width:1;" x1="900.47" x2="906.47" y1="672.18" y2="680.18"/><line style="stroke:#181818;stroke-width:1;" x1="900.47" x2="894.47" y1="672.18" y2="680.18"/><line style="stroke:#181818;stroke-width:1;" x1="900.47" x2="900.47" y1="672.18" y2="680.18"/><ellipse cx="900.47" cy="666.18" fill="none" rx="4" ry="4" style="stroke:#181818;stroke-width:1;"/><text fill="#000000" font-family="sans-serif" font-size="13" lengthAdjust="spacing" textLength="89.6606" x="810.47" y="634.3369">se registra en</text></g><!--link loan_statuses to loans--><g class="link" data-entity-1="loan_statuses" data-entity-2="loans" data-source-line="107" data-uid="lnk23" id="link_loan_statuses_loans"><path codeLine="107" d="M591.75,563.63 C591.75,591.23 591.75,603.69 591.75,637.85" fill="none" id="loan_statuses-loans" style="stroke:#181818;stroke-width:1;"/><line style="stroke:#181818;stroke-width:1;" x1="587.75" x2="595.75" y1="559.63" y2="559.63"/><line style="stroke:#181818;stroke-width:1;" x1="587.75" x2="595.75" y1="562.63" y2="562.63"/><line style="stroke:#181818;stroke-width:1;" x1="591.75" x2="591.75" y1="563.63" y2="555.63"/><line style="stroke:#181818;stroke-width:1;" x1="591.75" x2="597.75" y1="647.85" y2="655.85"/><line style="stroke:#181818;stroke-width:1;" x1="591.75" x2="585.75" y1="647.85" y2="655.85"/><line style="stroke:#181818;stroke-width:1;" x1="591.75" x2="591.75" y1="647.85" y2="655.85"/><ellipse cx="591.75" cy="641.85" fill="none" rx="4" ry="4" style="stroke:#181818;stroke-width:1;"/><text fill="#000000" font-family="sans-serif" font-size="13" lengthAdjust="spacing" textLength="44.04" x="546.75" y="601.8069">estado</text></g><!--link loans to loan_details--><g class="link" data-entity-1="loans" data-entity-2="loan_details" data-source-line="108" data-uid="lnk24" id="link_loans_loan_details"><path codeLine="108" d="M662.12,800.28 C692,800.28 708.84,800.28 708.84,800.28 C708.84,800.28 708.84,829.02 708.84,864.05" fill="none" id="loans-loan_details" style="stroke:#181818;stroke-width:1;"/><line style="stroke:#181818;stroke-width:1;" x1="658.12" x2="658.12" y1="804.28" y2="796.28"/><line style="stroke:#181818;stroke-width:1;" x1="661.12" x2="661.12" y1="804.28" y2="796.28"/><line style="stroke:#181818;stroke-width:1;" x1="662.12" x2="654.12" y1="800.28" y2="800.28"/><line style="stroke:#181818;stroke-width:1;" x1="712.84" x2="704.84" y1="868.05" y2="868.05"/><line style="stroke:#181818;stroke-width:1;" x1="712.84" x2="704.84" y1="865.05" y2="865.05"/><line style="stroke:#181818;stroke-width:1;" x1="708.84" x2="708.84" y1="864.05" y2="872.05"/><text fill="#000000" font-family="sans-serif" font-size="13" lengthAdjust="spacing" textLength="44.5352" x="663.84" y="804.8669">detalle</text></g><!--link loans to signatures--><g class="link" data-entity-1="loans" data-entity-2="signatures" data-source-line="109" data-uid="lnk25" id="link_loans_signatures"><path codeLine="109" d="M518.59,820.89 C518.59,857.57 518.59,885.28 518.59,885.28 C518.59,885.28 478.28,885.28 425.9,885.28" fill="none" id="loans-signatures" style="stroke:#181818;stroke-width:1;"/><line style="stroke:#181818;stroke-width:1;" x1="514.59" x2="522.59" y1="816.89" y2="816.89"/><line style="stroke:#181818;stroke-width:1;" x1="514.59" x2="522.59" y1="819.89" y2="819.89"/><line style="stroke:#181818;stroke-width:1;" x1="518.59" x2="518.59" y1="820.89" y2="812.89"/><line style="stroke:#181818;stroke-width:1;" x1="415.9" x2="407.9" y1="885.28" y2="891.28"/><line style="stroke:#181818;stroke-width:1;" x1="415.9" x2="407.9" y1="885.28" y2="879.28"/><line style="stroke:#181818;stroke-width:1;" x1="415.9" x2="407.9" y1="885.28" y2="885.28"/><ellipse cx="421.9" cy="885.28" fill="none" rx="4" ry="4" style="stroke:#181818;stroke-width:1;"/><text fill="#000000" font-family="sans-serif" font-size="13" lengthAdjust="spacing" textLength="34.1631" x="464.44" y="881.3469">firma</text></g><!--link loans to loan_approvals--><g class="link" data-entity-1="loans" data-entity-2="loan_approvals" data-source-line="110" data-uid="lnk26" id="link_loans_loan_approvals"><path codeLine="110" d="M442.72,735.28 C321.24,735.28 142.18,735.28 142.18,735.28 C142.18,735.28 142.18,803.28 142.18,862.24" fill="none" id="loans-loan_approvals" style="stroke:#181818;stroke-width:1;"/><line style="stroke:#181818;stroke-width:1;" x1="446.72" x2="446.72" y1="731.28" y2="739.28"/><line style="stroke:#181818;stroke-width:1;" x1="443.72" x2="443.72" y1="731.28" y2="739.28"/><line style="stroke:#181818;stroke-width:1;" x1="442.72" x2="450.72" y1="735.28" y2="735.28"/><line style="stroke:#181818;stroke-width:1;" x1="142.18" x2="148.18" y1="872.24" y2="880.24"/><line style="stroke:#181818;stroke-width:1;" x1="142.18" x2="136.18" y1="872.24" y2="880.24"/><line style="stroke:#181818;stroke-width:1;" x1="142.18" x2="142.18" y1="872.24" y2="880.24"/><ellipse cx="142.18" cy="866.24" fill="none" rx="4" ry="4" style="stroke:#181818;stroke-width:1;"/><text fill="#000000" font-family="sans-serif" font-size="13" lengthAdjust="spacing" textLength="32.9443" x="190.97" y="731.3469">tiene</text></g><!--link loans to documents--><g class="link" data-entity-1="loans" data-entity-2="documents" data-source-line="111" data-uid="lnk27" id="link_loans_documents"><path codeLine="111" d="M586.18,820.81 C586.18,846.43 586.18,848.03 586.18,870.44" fill="none" id="loans-documents" style="stroke:#181818;stroke-width:1;"/><line style="stroke:#181818;stroke-width:1;" x1="582.18" x2="590.18" y1="816.81" y2="816.81"/><line style="stroke:#181818;stroke-width:1;" x1="582.18" x2="590.18" y1="819.81" y2="819.81"/><line style="stroke:#181818;stroke-width:1;" x1="586.18" x2="586.18" y1="820.81" y2="812.81"/><line style="stroke:#181818;stroke-width:1;" x1="586.18" x2="592.18" y1="880.44" y2="888.44"/><line style="stroke:#181818;stroke-width:1;" x1="586.18" x2="580.18" y1="880.44" y2="888.44"/><line style="stroke:#181818;stroke-width:1;" x1="586.18" x2="586.18" y1="880.44" y2="888.44"/><ellipse cx="586.18" cy="874.44" fill="none" rx="4" ry="4" style="stroke:#181818;stroke-width:1;"/><text fill="#000000" font-family="sans-serif" font-size="13" lengthAdjust="spacing" textLength="49.3721" x="536.18" y="846.6969">adjunta</text></g><!--link gate_logs to exit_passes--><g class="link" data-entity-1="gate_logs" data-entity-2="exit_passes" data-source-line="112" data-uid="lnk28" id="link_gate_logs_exit_passes"><path codeLine="112" d="M974.23,796.46 C974.23,824.92 974.23,843.73 974.23,872.2" fill="none" id="gate_logs-exit_passes" style="stroke:#181818;stroke-width:1;"/><line style="stroke:#181818;stroke-width:1;" x1="970.23" x2="978.23" y1="792.46" y2="792.46"/><line style="stroke:#181818;stroke-width:1;" x1="970.23" x2="978.23" y1="795.46" y2="795.46"/><line style="stroke:#181818;stroke-width:1;" x1="974.23" x2="974.23" y1="796.46" y2="788.46"/><line style="stroke:#181818;stroke-width:1;" x1="978.23" x2="970.23" y1="876.2" y2="876.2"/><line style="stroke:#181818;stroke-width:1;" x1="978.23" x2="970.23" y1="873.2" y2="873.2"/><line style="stroke:#181818;stroke-width:1;" x1="974.23" x2="974.23" y1="872.2" y2="880.2"/><text fill="#000000" font-family="sans-serif" font-size="13" lengthAdjust="spacing" textLength="93.6851" x="880.23" y="830.3969">pase de salida</text></g><!--SRC=[dLN1ZjmW3BtdAz0SA-qFx0VqqallLOKymPEu9O20p6wqqt-lIR8JmeJLjhTWF_piP-Fqf52qv5kDJVXDne67GMWo62U7mlhOswP14obEmbkDGRmrGdmX9Px5cJeoKVpu_kqdsmmCoCOGFPcEpmf3wyb5iYOtQxoYPaCaC_5jjZZq0uN0k93i-1gRFtVECQ2lSrx8XoXBPWq7nXIejE40f7F3S0691iuQPovhzOnosaw8SaxWZWqHufWoHZCEV4xgo5sENpd7hH880UFdvUDq2RJas6VqkSDfQ24tp9swfs5V32lMazjCp4oTGIMZhMQdBHYvbFJf7kzlrsybwH-L4OiYHuubZyChpdbxvLBEquDFeQOh-cEdnnRfy6AXWSB8Gr4lPWOTP1R9MRuins0tvI_Kzh3lgZeKC3M8Q_RuxyGrTVEns8YKRSU1l-iyxuZq2kGQP7lKkJExd35q455gszKPgdsl3agxRf6Y67obA5qALoTxJ-Sexh9viduXJvwoZqGmAcRwiAXQxeDLezvfUA_cy1d9PSJXFqRmeyUntrPCkIpps-tfoRwjM_PPd7e8fsOvhQxbQRChM4qjHIZywrfZWBC1iVHkmZ6YGzvDPO1iz1d26tqe4Tj4CM0O-GToa6Ec6wF0-H7F76XDhoo6oVXN5v6NHedPiGNapT4HTmfOkLEpNvEFKTFuBAZ5Uxljjmg3qgVMcADgAkmGZqL6OZqBrFQ-amhgrsXInxQQrgJobvDQ1o598G9eKd3w2m00]--></g></svg>